<svg width="18" height="22" viewBox="0 0 18 22" fill="none" xmlns="http://www.w3.org/2000/svg">
<path d="M16 1H2C1.44772 1 1 1.44772 1 2V20C1 20.5523 1.44772 21 2 21H16C16.5523 21 17 20.5523 17 20V2C17 1.44772 16.5523 1 16 1Z" stroke="#334EAC" stroke-opacity="0.941176" stroke-width="2" stroke-linejoin="round"/>
<path d="M7.5 6H13.5M7.5 11H13.5M7.5 16H13.5" stroke="#334EAC" stroke-opacity="0.941176" stroke-width="2" stroke-linecap="round" stroke-linejoin="round"/>
<path d="M4.5 15.25C4.69891 15.25 4.88962 15.3291 5.03027 15.4697C5.17093 15.6104 5.25 15.8011 5.25 16C5.25 16.1989 5.17093 16.3896 5.03027 16.5303C4.88962 16.6709 4.69891 16.75 4.5 16.75C4.30109 16.75 4.11038 16.6709 3.96973 16.5303C3.82907 16.3896 3.75 16.1989 3.75 16C3.75 15.8011 3.82907 15.6104 3.96973 15.4697C4.11038 15.3291 4.30109 15.25 4.5 15.25ZM4.5 10.25C4.69891 10.25 4.88962 10.3291 5.03027 10.4697C5.17093 10.6104 5.25 10.8011 5.25 11C5.25 11.1989 5.17093 11.3896 5.03027 11.5303C4.88962 11.6709 4.69891 11.75 4.5 11.75C4.30109 11.75 4.11038 11.6709 3.96973 11.5303C3.82907 11.3896 3.75 11.1989 3.75 11C3.75 10.8011 3.82907 10.6104 3.96973 10.4697C4.11038 10.3291 4.30109 10.25 4.5 10.25ZM4.5 5.25C4.69891 5.25 4.88962 5.32907 5.03027 5.46973C5.17093 5.61038 5.25 5.80109 5.25 6C5.25 6.19891 5.17093 6.38962 5.03027 6.53027C4.88962 6.67093 4.69891 6.75 4.5 6.75C4.30109 6.75 4.11038 6.67093 3.96973 6.53027C3.82907 6.38962 3.75 6.19891 3.75 6C3.75 5.80109 3.82907 5.61038 3.96973 5.46973C4.11038 5.32907 4.30109 5.25 4.5 5.25Z" stroke="#334EAC" stroke-opacity="0.941176" stroke-width="0.5"/>
</svg>
